<svg xmlns="http://www.w3.org/2000/svg" viewBox="0 0 150 180">
  <g>
    <path
      fill-rule="evenodd"
      fill="rgba(0, 0, 0, 0)"
      stroke="rgb(0, 0, 128)"
      stroke-width="3px"
      stroke-linecap="round"
      stroke-linejoin="round"
      d="M 133.2 130.3 L 131.5 131.4 L 130.5 129.8 L 124.3 130 L 123.2 129.3 L 121.7 130.2 L 121.3 128.8 L 119.4 130.4 L 118.4 130 L 118.4 129.3 L 116.4 129.1 L 116.2 128.3 L 113.6 128.4 L 113.6 127.3 L 111.7 127.5 L 110.8 128.8 L 109.7 128.3 L 107.9 129.2 L 105.1 127.7 L 103.6 127.9 L 103.3 129 L 102.4 130 L 101.8 130 L 101.7 133.5 L 100.4 135.4 L 101 135.7 L 100.5 136.3 L 99.3 135.8 L 99.7 137.1 L 98.8 139.7 L 99.6 141.4 L 98.7 141.2 L 98.7 143 L 97.5 143.6 L 99.4 145.5 L 99 147.9 L 99.8 147.7 L 99.1 149.9 L 98 150.1 L 99.5 152 L 98.1 154.3 L 96 154.9 L 95.9 156 L 92.1 157.8 L 92 159 L 90.9 159.8 L 91.3 162.1 L 88.5 162.7 L 85.9 162.3 L 87.5 164.8 L 85.9 166.3 L 86.2 167.8 L 87.7 167.6 L 88.1 168.5 L 86.7 170.1 L 85.1 169.5 L 84.5 166.5 L 81.9 167.6 L 81.2 169.7 L 79.2 168.3 L 78.3 168.1 L 77 169.2 L 77.2 169.8 L 76 168.9 L 75.1 170.5 L 74.9 168.8 L 74.3 168.1 L 75 163.8 L 74 163.6 L 72.6 166.6 L 70.6 164.4 L 71.5 163.7 L 70.4 161.3 L 68.6 160.9 L 67.7 162.2 L 65 162.4 L 64.2 161.2 L 63.1 162.5 L 62.1 161.7 L 60.7 162.3 L 59.2 161.5 L 59.4 158.9 L 58.5 158.9 L 56.9 160 L 57 160.8 L 54.2 162.9 L 55.9 165.4 L 53.9 165.8 L 52.3 168.1 L 53.7 169.2 L 52.1 174 L 52.6 176.8 L 48.7 177.5 L 44.8 177.7 L 44.6 175.5 L 42 177.2 L 38.9 176.4 L 38.4 175.3 L 36.8 177.2 L 36.7 176.6 L 34.2 176 L 33.5 175.1 L 33.9 173.8 L 32.7 172.8 L 30.8 173.3 L 30.8 174.2 L 27.2 174.3 L 27.1 175.2 L 23.5 174.6 L 22.5 162.7 L 23.8 161.2 L 22.9 156.2 L 20.5 151.8 L 22.5 146.1 L 20 143.2 L 19.7 140.5 L 18 139.6 L 10.8 118.5 L 7.2 101.5 L 5.7 99.6 L 5.9 93.3 L 4.6 92.3 L 4.2 85.2 L 5.2 86.2 L 8.1 86.7 L 8.4 87.7 L 13.3 86.6 L 15.5 87.5 L 16 89.4 L 17.1 89.5 L 18 88.5 L 17.1 86.7 L 19 85.2 L 21 86.1 L 22.3 84.1 L 24.5 85.2 L 25.5 87.6 L 30.9 86.3 L 31.5 85 L 32.7 85.3 L 35.4 84.1 L 35.8 85.6 L 36.9 86 L 37.7 85.4 L 39.3 87.7 L 40.2 87.4 L 40.1 88.4 L 42.3 89.7 L 46.3 89.3 L 49.8 85 L 54.3 81 L 56.3 81.3 L 56.9 80.3 L 57.9 80.4 L 58.5 81.2 L 57.7 84.5 L 59.9 84.4 L 60.7 81.7 L 61.3 82.5 L 63.3 82.2 L 64.5 81.1 L 64.3 79.5 L 65.8 79.6 L 65.9 79 L 63.6 78.4 L 63.6 76.6 L 61.5 72.6 L 62.6 72.7 L 64.1 71.5 L 63.3 70.5 L 65.7 70.4 L 69.8 68.4 L 71.5 70.6 L 75 71.4 L 79.6 66.1 L 80.7 65.2 L 82 61.6 L 83.2 62.3 L 84 60.5 L 85.2 61.5 L 87.9 61.3 L 89.1 60.2 L 91.5 58.8 L 92.5 58.6 L 93.6 58.9 L 94.4 57.7 L 95.2 57.8 L 95.9 60.1 L 97.4 60.4 L 98.6 63.7 L 98.6 64.3 L 96.7 64.1 L 97.4 66.3 L 95.3 67.3 L 95 68.2 L 96.1 69.7 L 97 70.4 L 100.1 70.7 L 100.9 71.9 L 102.9 70.9 L 104.1 68.6 L 107.5 69.7 L 107.2 66.3 L 105.9 64.6 L 107.5 63.3 L 105.6 60.6 L 103.6 60 L 104.1 58.7 L 102.9 57 L 101.9 56.8 L 101 57.7 L 98.5 56.8 L 96.9 57.3 L 96 55.2 L 97.1 55.2 L 97.4 53.4 L 98.8 52.6 L 98.6 50.6 L 99.3 51 L 100.6 48.9 L 100.3 46.3 L 99.2 45.9 L 100.7 45.2 L 102.7 40.1 L 106.5 36.9 L 105.1 28.7 L 105.9 22.1 L 105.2 19.1 L 106 17.5 L 107.2 17.1 L 107.4 14.8 L 110.6 11.7 L 110.8 9.3 L 112 8.5 L 113.1 9 L 116.9 6.9 L 118.4 8.1 L 119.8 8.1 L 120.9 7.1 L 120.8 5.9 L 122.3 5.8 L 122.6 4.4 L 126.8 3.7 L 128.1 4.3 L 129.3 6.1 L 129.1 7.8 L 133.9 12.5 L 132.3 15.1 L 132.9 17.9 L 136.6 16.5 L 140.4 22.4 L 141.6 23 L 142.1 22.5 L 142.6 24.1 L 141.8 26.5 L 143.2 29.8 L 144.4 31.9 L 146.3 31.1 L 147.8 31.8 L 147.6 35.2 L 149.1 36.1 L 148.9 36.8 L 147.4 36 L 147.4 38.6 L 145.4 38 L 145.4 40.3 L 146 41.4 L 146.7 41.3 L 147.3 43.7 L 146.1 45.8 L 146 46.7 L 146.8 47 L 145.8 49 L 144.1 50.3 L 142.7 50.1 L 141.5 52.1 L 142.1 52.5 L 141.2 52.6 L 139.6 56.3 L 139.8 58.2 L 136.6 59.3 L 134.2 63.4 L 133.6 65 L 131.6 65.5 L 127.8 63.4 L 127.3 64 L 126.2 63.5 L 123.8 66.8 L 123.2 66.3 L 120.7 67.6 L 119.9 66 L 119.2 68.1 L 117.3 69.3 L 118.4 71.7 L 121.7 73.1 L 121.7 72 L 121 70.7 L 123.7 70.2 L 122.8 73.9 L 124.6 79 L 125.4 79.8 L 131.9 77.3 L 132.3 79.8 L 131.3 83.8 L 134.9 82 L 136.9 85.5 L 135.7 87.3 L 133.5 87.6 L 134.6 89.7 L 130.3 91.9 L 129.5 91.2 L 127.9 92.7 L 128.9 95 L 127.5 95.2 L 127.6 96.3 L 128.1 97.1 L 129.4 96.5 L 130 97.6 L 129 98.2 L 129.7 99.3 L 129 99.7 L 131 103.3 L 130.9 104.4 L 133.9 105.2 L 133.6 107.4 L 135.4 108 L 138.5 113 L 142.1 116.9 L 139.9 119.2 L 140.4 120.1 L 141.5 119 L 141.6 120 L 142.2 120 L 142.5 125.6 L 143.4 126.1 L 143.7 127.7 L 140.3 128.8 L 138.2 128.4 L 137.3 129.3 L 136 128.8 L 135 130.3 L 133.2 130.3 Z"
    />
  </g>
</svg>